<?xml version="1.0" encoding="UTF-8" standalone="no"?>
<!DOCTYPE svg PUBLIC "-//W3C//DTD SVG 1.1//EN" "http://www.w3.org/Graphics/SVG/1.1/DTD/svg11.dtd">
<svg width="100%" height="100%" viewBox="0 0 36 36" version="1.1" xmlns="http://www.w3.org/2000/svg" xmlns:xlink="http://www.w3.org/1999/xlink" xml:space="preserve" xmlns:serif="http://www.serif.com/" style="fill-rule:evenodd;clip-rule:evenodd;stroke-linejoin:round;stroke-miterlimit:2;">
    <g id="Artboard1" transform="matrix(1.04962,0,0,1.10104,0,0)">
        <rect x="0" y="0" width="34.298" height="32.696" style="fill:none;"/>
        <g transform="matrix(1.80517,0,0,1.72086,-1565.08,-1848.2)">
            <path d="M876.5,1074C877.83,1074 879.013,1080.04 879.013,1080.04C879.013,1080.04 885.124,1079.3 885.535,1080.56C885.946,1081.83 880.566,1084.82 880.566,1084.82C880.566,1084.82 883.16,1090.4 882.084,1091.19C881.008,1091.97 876.5,1087.78 876.5,1087.78C876.5,1087.78 871.992,1091.97 870.916,1091.19C869.84,1090.4 872.434,1084.82 872.434,1084.82C872.434,1084.82 867.054,1081.83 867.465,1080.56C867.876,1079.3 873.987,1080.04 873.987,1080.04C873.987,1080.04 875.17,1074 876.5,1074Z" style="fill:currentcolor;"/>
        </g>
    </g>
</svg>
